:SAMPLES-PER-SECOND 30
:FRAME-RANGE 1-4244
:FULLY-SPECIFIED
:DEGREES
796
root  -11.0483 37.5967 70.7904 105.476 64.7875 111.231
RightUpLeg  -10.711 -13.3146 -31.9844
RightLeg  44.3029 -8.56173 -9.14928
RightFoot  -18.928 0.726534 12.8529
RightToes  -3.31784e-009 0 -3.6325e-017
Spine  23.759 2.60003 10.3208
Spine1  -8.36285 5.37256 -14.8414
HEad  10.9648 29.7673 -18.1594
LeftShoulder1  0.42577 2.28965 -28.9449
LeftArm  -7.28361 38.0912 -13.9838
LeftForeArm  37.9639 -60.3695 -16.2851
LeftHand  -0.32251 -1.00827 5.98362
RightShoulder  5.6364 12.6035 29.0095
RightArm  4.31112 5.97098 10.1231
RightForeArm  20.1808 62.1404 19.8171
RightHand  0.0215946 2.84904 0.0858005
LeftUpLeg  -45.6714 25.3941 12.6708
LeftLeg  49.2812 -10.6958 -12.632
LeftFoot  13.8333 4.90371 -22.1056
LeftToes  1.0277e-010 -6.71454e-011 3.04227e-011
797
root  -10.8576 38.0409 70.6211 106.848 66.1065 110.522
RightUpLeg  -12.6 -14.3214 -29.045
RightLeg  43.2432 -13.1326 -13.176
RightFoot  -15.5895 0.35316 12.3407
RightToes  -3.31784e-009 0 -3.6325e-017
Spine  22.4008 2.99273 10.1224
Spine1  -8.6284 5.51092 -13.3749
HEad  10.6381 28.7611 -19.1134
LeftShoulder1  0.342835 2.50915 -28.3289
LeftArm  -4.48728 43.4765 -17.1186
LeftForeArm  49.8101 -69.7782 -25.3671
LeftHand  -0.258608 -0.945376 4.86139
RightShoulder  5.70715 10.7623 34.085
RightArm  8.58939 3.03712 12.1945
RightForeArm  15.5287 58.428 17.1754
RightHand  0.0211902 2.2583 0.135224
LeftUpLeg  -48.0477 26.3787 7.67382
LeftLeg  56.4396 -7.70213 -11.8268
LeftFoot  19.1812 6.5389 -24.1003
LeftToes  1.0277e-010 -6.71454e-011 3.04227e-011
798
root  -10.5139 38.131 70.2796 109.696 69.6264 111.541
RightUpLeg  -14.0245 -16.4356 -23.8543
RightLeg  42.4302 -17.6537 -16.8058
RightFoot  -14.9367 0.224337 10.3597
RightToes  -3.31784e-009 0 -3.6325e-017
Spine  19.3605 3.69122 11.945
Spine1  -7.07055 5.97053 -9.84285
HEad  9.8901 26.9522 -20.7483
LeftShoulder1  0.241397 2.78142 -27.2453
LeftArm  -0.276448 49.916 -23.7219
LeftForeArm  100.543 -80.7587 -74.7788
LeftHand  -0.110648 0.276811 2.50365
RightShoulder  5.405 8.69446 38.3093
RightArm  12.3973 1.02688 13.764
RightForeArm  9.16718 53.4297 14.5078
RightHand  0.00411792 1.97857 -0.105079
LeftUpLeg  -47.721 27.6935 4.6117
LeftLeg  59.1164 -8.82551 -15.0465
LeftFoot  22.0808 8.98633 -29.8131
LeftToes  1.0277e-010 -6.71454e-011 3.04227e-011
799
root  -10.1963 38.198 70.0363 114.437 73.2738 115.765
RightUpLeg  -12.522 -17.4555 -19.7505
RightLeg  39.3192 -18.7523 -16.0216
RightFoot  -15.0872 0.273261 11.4622
RightToes  -3.31784e-009 0 -3.6325e-017
Spine  17.1258 3.99865 14.0788
Spine1  -5.20414 6.24023 -6.3067
HEad  10.1899 26.1232 -21.0899
LeftShoulder1  0.375764 2.36228 -26.7381
LeftArm  6.99061 56.5899 -28.9004
LeftForeArm  179.992 -72.5431 -150.867
LeftHand  0.147046 -1.77934 -2.23377
RightShoulder  5.23907 7.50252 41.4459
RightArm  15.3351 -1.49465 14.56
RightForeArm  5.92212 47.9872 12.0426
RightHand  0.0235307 2.60753 0.135652
LeftUpLeg  -41.5467 25.4118 3.88136
LeftLeg  54.4448 -12.9643 -18.278
LeftFoot  21.1009 11.1206 -37.4842
LeftToes  1.0277e-010 -6.71454e-011 3.04227e-011
800
root  -9.97119 38.111 69.8908 114.043 75.882 114.918
RightUpLeg  -12.0308 -20.5091 -18.5535
RightLeg  37.365 -13.6594 -11.2201
RightFoot  -16.1345 0.444963 13.2045
RightToes  -3.31784e-009 0 -3.6325e-017
Spine  16.4445 3.55639 14.1226
Spine1  -4.73162 5.89737 -5.24069
HEad  9.89436 27.3775 -21.0763
LeftShoulder1  0.557861 1.81686 -26.9036
LeftArm  13.3815 61.0571 -29.774
LeftForeArm  -154.574 -61.132 -165.101
LeftHand  1.33572 -12.0587 -8.40023
RightShoulder  5.12016 6.74719 43.6343
RightArm  17.9622 -2.80325 16.2906
RightForeArm  5.31419 43.1415 10.1478
RightHand  0.0207715 3.13521 0.0504736
LeftUpLeg  -32.5407 21.99 2.56192
LeftLeg  45.1039 -17.641 -17.7263
LeftFoot  18.4863 9.26808 -34.3107
LeftToes  1.0277e-010 -6.71454e-011 3.04227e-011
801
root  -9.76009 38.0611 69.8295 97.5573 78.5286 96.4867
RightUpLeg  -15.0832 -22.4895 -17.0864
RightLeg  37.0984 -7.26109 -6.12842
RightFoot  -16.1039 0.464063 13.7381
RightToes  -3.31784e-009 0 -3.6325e-017
Spine  15.6297 3.72003 11.5012
Spine1  -4.74619 5.75752 -4.433
HEad  8.08531 31.2098 -21.9808
LeftShoulder1  0.435031 2.16481 -26.2985
LeftArm  11.7934 60.9508 -33.3128
LeftForeArm  -154.405 -57.2725 -167.253
LeftHand  1.31125 -11.0927 -8.76051
RightShoulder  5.19675 6.62504 44.8801
RightArm  19.3253 -2.97419 17.3928
RightForeArm  5.13228 42.2835 9.8529
RightHand  0.0604028 3.37481 0.556845
LeftUpLeg  -24.2005 18.2741 0.923903
LeftLeg  33.6871 -13.6919 -9.31392
LeftFoot  11.8236 4.3291 -21.2656
LeftToes  1.0277e-010 -6.71454e-011 3.04227e-011
802
root  -9.51 37.5968 69.6999 59.8087 79.3046 57.5301
RightUpLeg  -20.6276 -22.0721 -14.2855
RightLeg  42.1204 -1.61985 -1.8619
RightFoot  -15.7387 0.426351 13.8371
RightToes  -3.31784e-009 0 -3.6325e-017
Spine  15.388 4.0165 9.36506
Spine1  -4.76968 5.76241 -3.53036
HEad  4.2767 36.3611 -22.1846
LeftShoulder1  0.30988 2.52178 -25.3228
LeftArm  7.09829 56.0998 -33.7526
LeftForeArm  -178.181 -57.8481 -165.147
LeftHand  0.516063 -0.767601 -9.68845
RightShoulder  5.8512 7.52709 46.4465
RightArm  18.9868 -2.19776 17.2405
RightForeArm  6.72798 44.4857 10.5515
RightHand  0.0753428 3.38898 0.752512
LeftUpLeg  -16.4313 15.3294 2.29856
LeftLeg  23.5959 -2.65411 -0.934616
LeftFoot  -5.95202 0.587279 -11.6906
LeftToes  1.0277e-010 -6.71454e-011 3.04227e-011
803
root  -9.65566 37.0858 69.8542 43.025 75.0707 41.7037
RightUpLeg  -26.4913 -20.6951 -15.7077
RightLeg  51.4408 2.63506 3.1857
RightFoot  -12.3156 0.0516488 15.8723
RightToes  -3.31784e-009 0 -3.6325e-017
Spine  18.9909 4.1912 1.19461
Spine1  -7.03894 4.69192 -1.58877
HEad  -0.800034 41.5758 -22.3529
LeftShoulder1  0.313718 2.49655 -24.8968
LeftArm  3.11694 47.176 -28.814
LeftForeArm  165.636 -64.3781 -159.057
LeftHand  0.527579 -0.722967 -9.98301
RightShoulder  6.79486 8.69817 48.7891
RightArm  17.8855 0.494042 16.6035
RightForeArm  8.95034 46.5883 11.2255
RightHand  0.0247105 3.43422 0.0791785
LeftUpLeg  -15.7498 10.3959 2.31255
LeftLeg  26.8896 5.78331 3.53827
LeftFoot  -8.78839 0.361415 -13.8107
LeftToes  1.0277e-010 -6.71454e-011 3.04227e-011
804
root  -9.87996 36.6173 69.9528 47.143 75.274 45.5307
RightUpLeg  -31.361 -21.5303 -18.4541
RightLeg  59.2663 5.39545 9.26848
RightFoot  -7.18099 -0.924366 23.7669
RightToes  -3.31784e-009 0 -3.6325e-017
Spine  20.1434 2.8164 -3.15427
Spine1  -7.45424 2.10714 2.06446
HEad  -3.58868 43.9602 -22.1401
LeftShoulder1  0.752947 1.22584 -26.8963
LeftArm  4.50866 31.6176 -20.2814
LeftForeArm  145.661 -77.4911 -131.593
LeftHand  0.587759 -2.02608 -9.04099
RightShoulder  7.17967 8.98798 50.3485
RightArm  15.7567 3.33755 18.0297
RightForeArm  9.6522 45.4274 10.71
RightHand  -0.100817 3.09165 -1.61118
LeftUpLeg  -18.8456 11.74 2.3728
LeftLeg  31.1377 2.33633 1.8847
LeftFoot  -9.63925 0.281934 -15.0365
LeftToes  1.0277e-010 -6.71454e-011 3.04227e-011
805
root  -9.95596 36.3766 70.2064 47.7213 77.0464 46.508
RightUpLeg  -30.7062 -18.8429 -20.3571
RightLeg  60.9175 6.98638 12.9083
RightFoot  -7.97663 -0.93436 29.3222
RightToes  -3.31784e-009 0 -3.6325e-017
Spine  20.5057 1.16038 -1.47271
Spine1  -6.21619 1.13813 -1.62168
HEad  -3.91977 43.6378 -21.7601
LeftShoulder1  1.14015 -0.00704339 -26.3149
LeftArm  5.98692 19.3149 -19.6342
LeftForeArm  84.8345 -79.9838 -69.2724
LeftHand  0.782395 -4.01055 -9.3786
RightShoulder  7.87439 10.2067 50.3062
RightArm  13.0229 2.77813 18.3158
RightForeArm  6.48267 44.8613 10.7125
RightHand  -0.0721654 2.87285 -1.23467
LeftUpLeg  -19.6413 16.2993 4.32087
LeftLeg  33.1122 -3.25499 -1.90756
LeftFoot  -10.4516 0.170935 -13.9254
LeftToes  1.0277e-010 -6.71454e-011 3.04227e-011
806
root  -9.96731 36.3864 70.3817 50.2429 79.4713 48.0696
RightUpLeg  -28.6535 -15.6195 -21.6507
RightLeg  58.2648 5.35494 8.83686
RightFoot  -10.277 -0.315043 25.8907
RightToes  -3.31784e-009 0 -3.6325e-017
Spine  20.0847 0.178381 1.06572
Spine1  -6.04463 0.607755 -2.2546
HEad  -2.80867 42.6382 -22.8904
LeftShoulder1  1.21841 -0.20229 -26.7324
LeftArm  6.41612 13.6984 -22.1618
LeftForeArm  80.1417 -79.548 -62.3367
LeftHand  0.687686 -4.50315 -7.77283
RightShoulder  7.4868 10.0493 48.3889
RightArm  11.966 1.64687 18.6086
RightForeArm  6.31775 46.2052 11.2579
RightHand  0.0890549 3.07679 0.99191
LeftUpLeg  -21.5353 17.6288 5.61983
LeftLeg  33.7778 -5.09249 -3.28316
LeftFoot  -10.0977 0.20168 -12.9832
LeftToes  1.0277e-010 -6.71454e-011 3.04227e-011
